<svg width="19" height="16" viewBox="0 0 19 16" fill="none" xmlns="http://www.w3.org/2000/svg">
<path d="M2.36913 3.9161C2.38037 3.80438 2.36531 3.69159 2.32516 3.58674C2.285 3.48188 2.22086 3.38789 2.13787 3.31226L0.423639 1.23187V0.920776H5.74437L9.85743 10.0104L13.4731 0.920776H18.5461V1.23187L17.0805 2.64602C17.0184 2.69397 16.9705 2.75788 16.9419 2.83094C16.9133 2.90399 16.9051 2.98345 16.9181 3.06082V13.4618C16.9051 13.5392 16.9133 13.6187 16.9419 13.6917C16.9705 13.7648 17.0184 13.8287 17.0805 13.8766L18.5121 15.2917V15.6037H11.3138V15.2926L12.7968 13.8427C12.9427 13.6959 12.9427 13.6527 12.9427 13.4288V5.02099L8.82045 15.5688H8.26433L3.46484 5.02099V12.0908C3.42538 12.3872 3.52357 12.6873 3.73097 12.9021L5.65902 15.2587V15.5688H0.192383V15.2587L2.11952 12.9021C2.22149 12.7957 2.29716 12.6669 2.3405 12.526C2.38384 12.3852 2.39364 12.2361 2.36913 12.0908V3.9161Z" fill="white"/>
</svg>
