<svg width="38" height="33" viewBox="0 0 38 33" fill="none" xmlns="http://www.w3.org/2000/svg">
<path d="M33.0002 18.9999C34.2322 18.9819 35.4087 18.4844 36.28 17.6131C37.1513 16.7418 37.6487 15.5653 37.6668 14.3333V4.99994H26.0002V3.16828C25.9986 2.79445 25.9235 2.42458 25.779 2.07979C25.6345 1.735 25.4236 1.42204 25.1581 1.15879C24.8927 0.895534 24.5781 0.687136 24.2321 0.545495C23.8861 0.403853 23.5157 0.331741 23.1418 0.333276H14.8585C14.4847 0.331741 14.1142 0.403853 13.7682 0.545495C13.4223 0.687136 13.1076 0.895534 12.8422 1.15879C12.5768 1.42204 12.3658 1.735 12.2213 2.07979C12.0768 2.42458 12.0017 2.79445 12.0002 3.16828V4.99994H0.333496V14.3333C0.35185 15.5753 0.857385 16.7605 1.74118 17.6334C2.62498 18.5062 3.81631 18.997 5.0585 18.9999H9.72516V16.5733H12.0585V23.2233C12.0585 23.5327 11.9356 23.8294 11.7168 24.0482C11.498 24.267 11.2012 24.3899 10.8918 24.3899C10.5824 24.3899 10.2857 24.267 10.0669 24.0482C9.84808 23.8294 9.72516 23.5327 9.72516 23.2233V21.4033H5.07016C3.31891 21.4004 1.63104 20.7477 0.333496 19.5716V30.5966C0.333496 31.2154 0.579329 31.8089 1.01691 32.2465C1.4545 32.6841 2.04799 32.9299 2.66683 32.9299H35.3335C35.9523 32.9299 36.5458 32.6841 36.9834 32.2465C37.421 31.8089 37.6668 31.2154 37.6668 30.5966V19.5716C36.3729 20.7536 34.6827 21.4072 32.9302 21.4033H30.6668V18.9999H33.0002ZM14.3335 3.16828C14.3395 3.03312 14.3975 2.9055 14.4953 2.81204C14.5931 2.71857 14.7232 2.66648 14.8585 2.66661H23.1418C23.2771 2.66648 23.4072 2.71857 23.505 2.81204C23.6029 2.9055 23.6608 3.03312 23.6668 3.16828V4.99994H14.3335V3.16828ZM28.3335 23.2233C28.3335 23.5327 28.2106 23.8294 27.9918 24.0482C27.773 24.267 27.4762 24.3899 27.1668 24.3899C26.8574 24.3899 26.5607 24.267 26.3419 24.0482C26.1231 23.8294 26.0002 23.5327 26.0002 23.2233V21.4033H14.3335V18.9999H26.0002V16.5733H28.3335V23.2233Z" fill="#000F21"/>
</svg>
