<svg width="23" height="22" viewBox="0 0 23 22" fill="none" xmlns="http://www.w3.org/2000/svg">
<path fill-rule="evenodd" clip-rule="evenodd" d="M11.4878 0.25C5.40355 0.25 0.475586 5.17796 0.475586 11.2622C0.475586 16.1351 3.62783 20.2509 8.00518 21.71C8.55579 21.8064 8.76227 21.476 8.76227 21.187C8.76227 20.9254 8.74851 20.0582 8.74851 19.1359C5.98169 19.6453 5.2659 18.4614 5.04565 17.842C4.92177 17.5254 4.38492 16.5481 3.9169 16.2865C3.53147 16.0801 2.98086 15.5707 3.90314 15.557C4.77035 15.5432 5.38978 16.3554 5.59626 16.6857C6.58736 18.3513 8.17037 17.8833 8.80357 17.5942C8.89993 16.8784 9.189 16.3967 9.5056 16.1213C7.05538 15.846 4.49504 14.8962 4.49504 10.6841C4.49504 9.48649 4.92177 8.49539 5.62379 7.72454C5.51367 7.44923 5.12824 6.32048 5.73392 4.8063C5.73392 4.8063 6.65619 4.51723 8.76227 5.93505C9.64325 5.68728 10.5793 5.56339 11.5153 5.56339C12.4514 5.56339 13.3874 5.68728 14.2684 5.93505C16.3745 4.50347 17.2967 4.8063 17.2967 4.8063C17.9024 6.32048 17.517 7.44923 17.4069 7.72454C18.1089 8.49539 18.5356 9.47273 18.5356 10.6841C18.5356 14.91 15.9615 15.846 13.5113 16.1213C13.9105 16.4655 14.2546 17.1262 14.2546 18.1586C14.2546 19.6315 14.2408 20.8153 14.2408 21.187C14.2408 21.476 14.4473 21.8202 14.9979 21.71C17.184 20.972 19.0836 19.567 20.4294 17.6928C21.7752 15.8186 22.4993 13.5695 22.5 11.2622C22.5 5.17796 17.572 0.25 11.4878 0.25Z" fill="white"/>
</svg>
