<svg width="23" height="22" viewBox="0 0 23 22" fill="none" xmlns="http://www.w3.org/2000/svg">
<g filter="url(#filter0_d_262_1221)">
<path fill-rule="evenodd" clip-rule="evenodd" d="M6.96945 0.228292C8.04589 0.178737 8.38911 0.167725 11.1311 0.167725C13.8732 0.167725 14.2164 0.179654 15.2919 0.228292C16.3675 0.276929 17.1016 0.448536 17.744 0.697228C18.4166 0.951427 19.0269 1.34878 19.5316 1.86269C20.0455 2.3665 20.442 2.97584 20.6953 3.64942C20.9449 4.2918 21.1156 5.02594 21.1651 6.09964C21.2147 7.17791 21.2257 7.52113 21.2257 10.2622C21.2257 13.0043 21.2137 13.3475 21.1651 14.4239C21.1165 15.4976 20.9449 16.2318 20.6953 16.8742C20.442 17.5478 20.0449 18.1582 19.5316 18.6627C19.0269 19.1766 18.4166 19.5731 17.744 19.8264C17.1016 20.076 16.3675 20.2467 15.2938 20.2962C14.2164 20.3458 13.8732 20.3568 11.1311 20.3568C8.38911 20.3568 8.04589 20.3448 6.96945 20.2962C5.89576 20.2476 5.16161 20.076 4.51923 19.8264C3.84558 19.573 3.23523 19.1759 2.73067 18.6627C2.21711 18.1586 1.81969 17.5486 1.56612 16.8751C1.31743 16.2327 1.14674 15.4986 1.09719 14.4249C1.04763 13.3466 1.03662 13.0034 1.03662 10.2622C1.03662 7.52021 1.04855 7.177 1.09719 6.10147C1.14583 5.02594 1.31743 4.2918 1.56612 3.64942C1.82007 2.97591 2.21779 2.36587 2.73158 1.86177C3.23543 1.34833 3.84517 0.950916 4.51831 0.697228C5.16069 0.448536 5.89484 0.277847 6.96853 0.228292H6.96945ZM15.2103 2.04531C14.1457 1.99667 13.8264 1.98657 11.1311 1.98657C8.43591 1.98657 8.11655 1.99667 7.05204 2.04531C6.06737 2.09027 5.53327 2.25454 5.17721 2.39311C4.70644 2.57665 4.36965 2.79414 4.01634 3.14745C3.68143 3.47327 3.42368 3.86992 3.26201 4.30832C3.12343 4.66438 2.95917 5.19847 2.9142 6.18314C2.86557 7.24766 2.85547 7.56701 2.85547 10.2622C2.85547 12.9575 2.86557 13.2768 2.9142 14.3414C2.95917 15.326 3.12343 15.8601 3.26201 16.2162C3.42352 16.6539 3.68139 17.0513 4.01634 17.3771C4.34212 17.712 4.73948 17.9699 5.17721 18.1314C5.53327 18.27 6.06737 18.4342 7.05204 18.4792C8.11655 18.5278 8.43499 18.5379 11.1311 18.5379C13.8273 18.5379 14.1457 18.5278 15.2103 18.4792C16.1949 18.4342 16.729 18.27 17.0851 18.1314C17.5559 17.9479 17.8926 17.7304 18.246 17.3771C18.5809 17.0513 18.8388 16.6539 19.0003 16.2162C19.1389 15.8601 19.3031 15.326 19.3481 14.3414C19.3967 13.2768 19.4068 12.9575 19.4068 10.2622C19.4068 7.56701 19.3967 7.24766 19.3481 6.18314C19.3031 5.19847 19.1389 4.66438 19.0003 4.30832C18.8168 3.83754 18.5993 3.50075 18.246 3.14745C17.9201 2.81256 17.5235 2.55481 17.0851 2.39311C16.729 2.25454 16.1949 2.09027 15.2103 2.04531ZM9.8418 13.3741C10.5619 13.6739 11.3637 13.7143 12.1103 13.4886C12.8568 13.2628 13.5019 12.7849 13.9352 12.1364C14.3686 11.4879 14.5633 10.709 14.4862 9.9329C14.4091 9.15675 14.065 8.43145 13.5125 7.88086C13.1604 7.52891 12.7345 7.25942 12.2657 7.09179C11.7969 6.92416 11.2967 6.86256 10.8012 6.91143C10.3057 6.9603 9.82726 7.11843 9.40021 7.37442C8.97317 7.63041 8.6082 7.9779 8.33157 8.39187C8.05494 8.80585 7.87354 9.276 7.80043 9.7685C7.72731 10.261 7.7643 10.7636 7.90874 11.2401C8.05317 11.7165 8.30145 12.1551 8.63571 12.5241C8.96996 12.8931 9.38188 13.1834 9.8418 13.3741ZM7.46225 6.59335C7.94405 6.11154 8.51604 5.72935 9.14555 5.4686C9.77506 5.20785 10.4498 5.07364 11.1311 5.07364C11.8125 5.07364 12.4872 5.20785 13.1167 5.4686C13.7463 5.72935 14.3182 6.11154 14.8 6.59335C15.2819 7.07516 15.664 7.64714 15.9248 8.27666C16.1855 8.90617 16.3198 9.58087 16.3198 10.2622C16.3198 10.9436 16.1855 11.6183 15.9248 12.2478C15.664 12.8774 15.2819 13.4493 14.8 13.9312C13.827 14.9042 12.5073 15.4509 11.1311 15.4509C9.75504 15.4509 8.4353 14.9042 7.46225 13.9312C6.48919 12.9581 5.94254 11.6384 5.94254 10.2622C5.94254 8.88615 6.48919 7.5664 7.46225 6.59335ZM17.4705 5.84635C17.5899 5.73373 17.6855 5.59829 17.7516 5.44806C17.8177 5.29782 17.853 5.13585 17.8554 4.97174C17.8578 4.80762 17.8272 4.64469 17.7655 4.4926C17.7038 4.3405 17.6122 4.20233 17.4962 4.08627C17.3801 3.97021 17.2419 3.87862 17.0898 3.81691C16.9377 3.75521 16.7748 3.72465 16.6107 3.72704C16.4466 3.72943 16.2846 3.76473 16.1344 3.83084C15.9842 3.89695 15.8487 3.99254 15.7361 4.11193C15.517 4.34413 15.3971 4.65256 15.4018 4.97174C15.4064 5.29092 15.5353 5.59572 15.761 5.82143C15.9867 6.04715 16.2915 6.17601 16.6107 6.18067C16.9299 6.18532 17.2383 6.0654 17.4705 5.84635Z" fill="white"/>
</g>
<defs>
<filter id="filter0_d_262_1221" x="-2.96338" y="0.167725" width="28.189" height="28.1891" filterUnits="userSpaceOnUse" color-interpolation-filters="sRGB">
<feFlood flood-opacity="0" result="BackgroundImageFix"/>
<feColorMatrix in="SourceAlpha" type="matrix" values="0 0 0 0 0 0 0 0 0 0 0 0 0 0 0 0 0 0 127 0" result="hardAlpha"/>
<feOffset dy="4"/>
<feGaussianBlur stdDeviation="2"/>
<feComposite in2="hardAlpha" operator="out"/>
<feColorMatrix type="matrix" values="0 0 0 0 0 0 0 0 0 0 0 0 0 0 0 0 0 0 0.5 0"/>
<feBlend mode="normal" in2="BackgroundImageFix" result="effect1_dropShadow_262_1221"/>
<feBlend mode="normal" in="SourceGraphic" in2="effect1_dropShadow_262_1221" result="shape"/>
</filter>
</defs>
</svg>
