<svg width="23" height="21" viewBox="0 0 23 21" fill="none" xmlns="http://www.w3.org/2000/svg">
<g filter="url(#filter0_d_262_1223)">
<path d="M18.4701 0.658936H4.02946C3.26592 0.658936 2.64648 1.27837 2.64648 2.04191V16.4825C2.64648 17.2461 3.26592 17.8655 4.02946 17.8655H18.4701C19.2336 17.8655 19.8531 17.2461 19.8531 16.4825V2.04191C19.8531 1.27837 19.2336 0.658936 18.4701 0.658936ZM18.4701 16.489C8.8387 16.4868 4.02301 16.4847 4.02301 16.4825C4.02516 6.85115 4.02731 2.03546 4.02946 2.03546C13.6608 2.03761 18.4765 2.03976 18.4765 2.04191C18.4744 11.6733 18.4722 16.489 18.4701 16.489ZM5.19736 7.10925H7.75039V15.3211H5.19736V7.10925ZM6.47495 5.98652C7.29011 5.98652 7.95471 5.32407 7.95471 4.50676C7.95471 4.31243 7.91644 4.12001 7.84207 3.94047C7.76771 3.76094 7.65871 3.59781 7.5213 3.4604C7.38389 3.323 7.22076 3.214 7.04123 3.13963C6.8617 3.06527 6.66927 3.02699 6.47495 3.02699C6.28062 3.02699 6.0882 3.06527 5.90867 3.13963C5.72913 3.214 5.566 3.323 5.4286 3.4604C5.29119 3.59781 5.18219 3.76094 5.10782 3.94047C5.03346 4.12001 4.99518 4.31243 4.99518 4.50676C4.99303 5.32407 5.65548 5.98652 6.47495 5.98652ZM11.9015 11.2582C11.9015 10.1871 12.1058 9.15038 13.4329 9.15038C14.7406 9.15038 14.7599 10.3742 14.7599 11.327V15.3211H17.3108V10.8173C17.3108 8.60622 16.8333 6.90492 14.2502 6.90492C13.0091 6.90492 12.1768 7.58673 11.8348 8.23198H11.8004V7.10925H9.3506V15.3211H11.9015V11.2582Z" fill="white"/>
</g>
<defs>
<filter id="filter0_d_262_1223" x="-1.35352" y="0.658936" width="25.2065" height="25.2065" filterUnits="userSpaceOnUse" color-interpolation-filters="sRGB">
<feFlood flood-opacity="0" result="BackgroundImageFix"/>
<feColorMatrix in="SourceAlpha" type="matrix" values="0 0 0 0 0 0 0 0 0 0 0 0 0 0 0 0 0 0 127 0" result="hardAlpha"/>
<feOffset dy="4"/>
<feGaussianBlur stdDeviation="2"/>
<feComposite in2="hardAlpha" operator="out"/>
<feColorMatrix type="matrix" values="0 0 0 0 0 0 0 0 0 0 0 0 0 0 0 0 0 0 0.5 0"/>
<feBlend mode="normal" in2="BackgroundImageFix" result="effect1_dropShadow_262_1223"/>
<feBlend mode="normal" in="SourceGraphic" in2="effect1_dropShadow_262_1223" result="shape"/>
</filter>
</defs>
</svg>
